<svg width="32" height="32" viewBox="0 0 32 32" fill="none" xmlns="http://www.w3.org/2000/svg">
  <defs>
    <linearGradient id="gradient" x1="0%" y1="0%" x2="100%" y2="100%">
      <stop offset="0%" style="stop-color:#667eea;stop-opacity:1" />
      <stop offset="100%" style="stop-color:#764ba2;stop-opacity:1" />
    </linearGradient>
  </defs>
  
  <!-- Background Circle -->
  <circle cx="16" cy="16" r="14" fill="url(#gradient)"/>
  
  <!-- Simplified Brain/Analytics Symbol -->
  <g transform="translate(8, 6)">
    <!-- Brain outline simplified -->
    <path d="M8 3C11 3 13.5 5.5 13.5 8.5C13.5 9.5 13.2 10.4 12.7 11.2C14.5 12.2 15.5 14 15.5 16C15.5 18.5 13.5 20.5 11 20.5C10.2 20.5 9.5 20.3 8.8 19.9C8.1 20.3 7.4 20.5 6.5 20.5C4 20.5 2 18.5 2 16C2 14 3 12.2 4.8 11.2C4.3 10.4 4 9.5 4 8.5C4 5.5 6.5 3 9.5 3C9.7 3 9.8 3 8 3Z" 
          fill="none" stroke="white" stroke-width="1.2" stroke-linecap="round" stroke-linejoin="round"/>
    
    <!-- Neural connections simplified -->
    <circle cx="6" cy="7" r="0.8" fill="white"/>
    <circle cx="10" cy="7" r="0.8" fill="white"/>
    <circle cx="8" cy="11" r="0.8" fill="white"/>
    <circle cx="5" cy="14" r="0.8" fill="white"/>
    <circle cx="11" cy="14" r="0.8" fill="white"/>
    
    <!-- Connection lines -->
    <line x1="6" y1="7" x2="8" y2="11" stroke="white" stroke-width="0.8" opacity="0.8"/>
    <line x1="10" y1="7" x2="8" y2="11" stroke="white" stroke-width="0.8" opacity="0.8"/>
    <line x1="8" y1="11" x2="5" y2="14" stroke="white" stroke-width="0.8" opacity="0.8"/>
    <line x1="8" y1="11" x2="11" y2="14" stroke="white" stroke-width="0.8" opacity="0.8"/>
  </g>
  
  <!-- Simple chart bars at bottom -->
  <g transform="translate(6, 22)" opacity="0.9">
    <rect x="0" y="3" width="1.5" height="3" fill="white" rx="0.5"/>
    <rect x="2.5" y="1" width="1.5" height="5" fill="white" rx="0.5"/>
    <rect x="5" y="0" width="1.5" height="6" fill="white" rx="0.5"/>
    <rect x="7.5" y="2" width="1.5" height="4" fill="white" rx="0.5"/>
    <rect x="10" y="1" width="1.5" height="5" fill="white" rx="0.5"/>
    <rect x="12.5" y="0" width="1.5" height="6" fill="white" rx="0.5"/>
    <rect x="15" y="2" width="1.5" height="4" fill="white" rx="0.5"/>
    <rect x="17.5" y="1" width="1.5" height="5" fill="white" rx="0.5"/>
  </g>
</svg>